fd_11_states
version=1
nRows=47
nColumns=17
inDegrees=yes

# SIMM Motion File Header:
name fd_11_states
datacolumns 17
datarows 47
otherdata 1
range 0.030000 0.055576
endheader
time	/jointset/r_shoulder/r_shoulder_elev/value	/jointset/r_shoulder/r_shoulder_elev/speed	/jointset/r_elbow/r_elbow_flex/value	/jointset/r_elbow/r_elbow_flex/speed	/forceset/TRIlong/activation	/forceset/TRIlong/fiber_length	/forceset/TRIlat/activation	/forceset/TRIlat/fiber_length	/forceset/TRImed/activation	/forceset/TRImed/fiber_length	/forceset/BIClong/activation	/forceset/BIClong/fiber_length	/forceset/BICshort/activation	/forceset/BICshort/fiber_length	/forceset/BRA/activation	/forceset/BRA/fiber_length
      0.030000	      0.000000	      0.000000	     31.639990	    376.094653	      0.054531	      0.148249	      0.020000	      0.082798	      0.020000	      0.077791	      0.020000	      0.139365	      0.192659	      0.137093	      0.263891	      0.085403
      0.030177	     -0.000000	     -0.000252	     31.706449	    375.957743	      0.054484	      0.148276	      0.020000	      0.082818	      0.020000	      0.077832	      0.020180	      0.139336	      0.193558	      0.137063	      0.263804	      0.085388
      0.030353	     -0.000000	     -0.000449	     31.772883	    375.820447	      0.054427	      0.148304	      0.020000	      0.082841	      0.020000	      0.077861	      0.020390	      0.139307	      0.194619	      0.137033	      0.263708	      0.085373
      0.031140	      0.000001	      0.001895	     32.068317	    375.197937	      0.054178	      0.148427	      0.020000	      0.082955	      0.020000	      0.077998	      0.021242	      0.139177	      0.199047	      0.136896	      0.263286	      0.085306
      0.031824	      0.000002	      0.004692	     32.324523	    374.653171	      0.053964	      0.148533	      0.020000	      0.083101	      0.020000	      0.078082	      0.021885	      0.139064	      0.202527	      0.136773	      0.262925	      0.085248
      0.032282	      0.000003	      0.001619	     32.496102	    374.301829	      0.053821	      0.148605	      0.020000	      0.083140	      0.020000	      0.078157	      0.022271	      0.138987	      0.204689	      0.136690	      0.262686	      0.085209
      0.032732	      0.000004	      0.001294	     32.664465	    373.948129	      0.053683	      0.148675	      0.020000	      0.083202	      0.020000	      0.078223	      0.022619	      0.138912	      0.206689	      0.136607	      0.262454	      0.085172
      0.033294	      0.000005	      0.003948	     32.874608	    373.496217	      0.053511	      0.148762	      0.020000	      0.083288	      0.020000	      0.078309	      0.023015	      0.138817	      0.209026	      0.136502	      0.262167	      0.085124
      0.033986	      0.000009	      0.007293	     33.132711	    372.938845	      0.053301	      0.148869	      0.020000	      0.083393	      0.020000	      0.078410	      0.023447	      0.138701	      0.211676	      0.136372	      0.261819	      0.085067
      0.034515	      0.000014	      0.011905	     33.330191	    372.504706	      0.053142	      0.148951	      0.020000	      0.083474	      0.020000	      0.078500	      0.023742	      0.138612	      0.213552	      0.136272	      0.261557	      0.085022
      0.035045	      0.000021	      0.014294	     33.527442	    372.076284	      0.052984	      0.149033	      0.020000	      0.083553	      0.020000	      0.078571	      0.024009	      0.138523	      0.215305	      0.136170	      0.261297	      0.084978
      0.035575	      0.000030	      0.018794	     33.724465	    371.640635	      0.052827	      0.149115	      0.020000	      0.083634	      0.020000	      0.078656	      0.024251	      0.138433	      0.216944	      0.136069	      0.261041	      0.084934
      0.036235	      0.000044	      0.022254	     33.969555	    371.103027	      0.052634	      0.149216	      0.020000	      0.083733	      0.020000	      0.078749	      0.024520	      0.138322	      0.218837	      0.135942	      0.260727	      0.084879
      0.036764	      0.000057	      0.027012	     34.165719	    370.665134	      0.052481	      0.149298	      0.020000	      0.083813	      0.020000	      0.078839	      0.024713	      0.138232	      0.220245	      0.135839	      0.260478	      0.084835
      0.037293	      0.000072	      0.029032	     34.361653	    370.234373	      0.052328	      0.149379	      0.020000	      0.083892	      0.020000	      0.078909	      0.024888	      0.138143	      0.221562	      0.135737	      0.260232	      0.084791
      0.037822	      0.000088	      0.032833	     34.557358	    369.797223	      0.052177	      0.149460	      0.020000	      0.083972	      0.020000	      0.078992	      0.025046	      0.138053	      0.222796	      0.135634	      0.259989	      0.084748
      0.038513	      0.000112	      0.035497	     34.812586	    369.231519	      0.051982	      0.149565	      0.020000	      0.084075	      0.020000	      0.079089	      0.025231	      0.137935	      0.224290	      0.135499	      0.259677	      0.084691
      0.039038	      0.000132	      0.039216	     35.006461	    368.794842	      0.051835	      0.149645	      0.020000	      0.084154	      0.020000	      0.079179	      0.025356	      0.137846	      0.225344	      0.135397	      0.259442	      0.084647
      0.039563	      0.000153	      0.040265	     35.200108	    368.364955	      0.051688	      0.149725	      0.020000	      0.084232	      0.020000	      0.079248	      0.025470	      0.137756	      0.226333	      0.135295	      0.259210	      0.084604
      0.039853	      0.000164	      0.041725	     35.306698	    368.124957	      0.051608	      0.149769	      0.020000	      0.084275	      0.020000	      0.079292	      0.025528	      0.137707	      0.226851	      0.135238	      0.259084	      0.084580
      0.039999	      0.000171	      0.042373	     35.360403	    368.004094	      0.051568	      0.149791	      0.020000	      0.084297	      0.020000	      0.079314	      0.025556	      0.137682	      0.227105	      0.135210	      0.259020	      0.084568
      0.040074	      0.000174	      0.042699	     35.388176	    367.941570	      0.051536	      0.149803	      0.020000	      0.084308	      0.020000	      0.079325	      0.026430	      0.137669	      0.227060	      0.135195	      0.258916	      0.084562
      0.040150	      0.000177	      0.043016	     35.415944	    367.879053	      0.051502	      0.149814	      0.020000	      0.084319	      0.020000	      0.079336	      0.027460	      0.137656	      0.226979	      0.135180	      0.258798	      0.084556
      0.040527	      0.000194	      0.044332	     35.554711	    367.567245	      0.051331	      0.149872	      0.020000	      0.084376	      0.020000	      0.079392	      0.032358	      0.137586	      0.226580	      0.135107	      0.258208	      0.084525
      0.042414	      0.000276	      0.042235	     36.246813	    366.043084	      0.050490	      0.150158	      0.020000	      0.084665	      0.020000	      0.079685	      0.051782	      0.137208	      0.224636	      0.134746	      0.255342	      0.084372
      0.042854	      0.000293	      0.035548	     36.407833	    365.707400	      0.050298	      0.150227	      0.020000	      0.084721	      0.020000	      0.079737	      0.055352	      0.137118	      0.224195	      0.134662	      0.254693	      0.084337
      0.043420	      0.000311	      0.030442	     36.614717	    365.267375	      0.050052	      0.150314	      0.020000	      0.084804	      0.020000	      0.079819	      0.059523	      0.137003	      0.223633	      0.134555	      0.253867	      0.084292
      0.044242	      0.000333	      0.023987	     36.914675	    364.628204	      0.049699	      0.150438	      0.020000	      0.084927	      0.020000	      0.079951	      0.064845	      0.136836	      0.222831	      0.134401	      0.252689	      0.084226
      0.044716	      0.000343	      0.017336	     37.087448	    364.269483	      0.049498	      0.150510	      0.020000	      0.084994	      0.020000	      0.080009	      0.067570	      0.136740	      0.222375	      0.134312	      0.252021	      0.084189
      0.045306	      0.000352	      0.012261	     37.302307	    363.814256	      0.049249	      0.150599	      0.020000	      0.085081	      0.020000	      0.080096	      0.070652	      0.136621	      0.221813	      0.134202	      0.251199	      0.084142
      0.046443	      0.000361	      0.003661	     37.715565	    362.936011	      0.048776	      0.150771	      0.020000	      0.085244	      0.020000	      0.080259	      0.075758	      0.136393	      0.220753	      0.133990	      0.249648	      0.084052
      0.046918	      0.000362	      0.002736	     37.887575	    362.562609	      0.048581	      0.150842	      0.020000	      0.085317	      0.020000	      0.080332	      0.077606	      0.136299	      0.220319	      0.133902	      0.249014	      0.084015
      0.047392	      0.000363	      0.001419	     38.059408	    362.190677	      0.048388	      0.150913	      0.020000	      0.085386	      0.020000	      0.080399	      0.079310	      0.136205	      0.219889	      0.133814	      0.248387	      0.083977
      0.048163	      0.000365	      0.002448	     38.338304	    361.577077	      0.048077	      0.151028	      0.020000	      0.085498	      0.020000	      0.080513	      0.081803	      0.136053	      0.219200	      0.133670	      0.247383	      0.083917
      0.048772	      0.000367	      0.004594	     38.558621	    361.087778	      0.047833	      0.151119	      0.020000	      0.085586	      0.020000	      0.080597	      0.083559	      0.135933	      0.218664	      0.133557	      0.246602	      0.083869
      0.049382	      0.000371	      0.010191	     38.778638	    360.588041	      0.047591	      0.151210	      0.020000	      0.085675	      0.020000	      0.080691	      0.085146	      0.135813	      0.218135	      0.133444	      0.245832	      0.083821
      0.049992	      0.000379	      0.016386	     38.998348	    360.086286	      0.047352	      0.151300	      0.020000	      0.085762	      0.020000	      0.080773	      0.086580	      0.135694	      0.217612	      0.133330	      0.245073	      0.083774
      0.050154	      0.000382	      0.018915	     39.056713	    359.950161	      0.047289	      0.151324	      0.020000	      0.085786	      0.020000	      0.080797	      0.087304	      0.135663	      0.217643	      0.133300	      0.244971	      0.083761
      0.050316	      0.000385	      0.021486	     39.115055	    359.813876	      0.047226	      0.151348	      0.020000	      0.085809	      0.020000	      0.080821	      0.088215	      0.135631	      0.217966	      0.133270	      0.244924	      0.083749
      0.051127	      0.000408	      0.036003	     39.406433	    359.127034	      0.046913	      0.151468	      0.020000	      0.085926	      0.020000	      0.080940	      0.092408	      0.135471	      0.219485	      0.133117	      0.244694	      0.083685
      0.051723	      0.000433	      0.046697	     39.620414	    358.621424	      0.046685	      0.151556	      0.020000	      0.086011	      0.020000	      0.081021	      0.095148	      0.135352	      0.220509	      0.133004	      0.244526	      0.083639
      0.052319	      0.000464	      0.058585	     39.834093	    358.112001	      0.046459	      0.151644	      0.020000	      0.086097	      0.020000	      0.081111	      0.097630	      0.135233	      0.221461	      0.132890	      0.244362	      0.083592
      0.053070	      0.000513	      0.070836	     40.102703	    357.478500	      0.046178	      0.151754	      0.020000	      0.086204	      0.020000	      0.081211	      0.100429	      0.135082	      0.222564	      0.132745	      0.244157	      0.083534
      0.053637	      0.000557	      0.081441	     40.305355	    356.995512	      0.045968	      0.151837	      0.020000	      0.086285	      0.020000	      0.081303	      0.102329	      0.134968	      0.223332	      0.132635	      0.244005	      0.083489
      0.054204	      0.000605	      0.088779	     40.507734	    356.522144	      0.045759	      0.151920	      0.020000	      0.086366	      0.020000	      0.081375	      0.104064	      0.134854	      0.224050	      0.132524	      0.243854	      0.083445
      0.054772	      0.000658	      0.096854	     40.709845	    356.046249	      0.045552	      0.152002	      0.020000	      0.086447	      0.020000	      0.081458	      0.105649	      0.134741	      0.224719	      0.132413	      0.243706	      0.083401
      0.055576	      0.000739	      0.104856	     40.995939	    355.381290	      0.045262	      0.152119	      0.020000	      0.086561	      0.020000	      0.081567	      0.107667	      0.134580	      0.225592	      0.132255	      0.243498	      0.083338
